<?xml version="1.0" encoding="UTF-8"?>
<svg version="1.1" viewBox="0 0 1267.7 660.78" xmlns="http://www.w3.org/2000/svg">
 <g transform="translate(39.708 -271.15)" stroke-width="30.128">
  <path d="m803.1 880.23c7.1741-1.435 16.357-3.7305 21.809-7.748 1.5784-1.1479 3.5871-2.7263 3.5871-4.8784 0-0.43054-0.14461-1.0044-0.28621-1.435-0.71733-1.8652-5.0219-2.0086-7.0306-2.0086-1.8652 0-4.7349 1.1478-7.0306 1.5784-5.1654 1.1478-10.187 2.5828-16.644 3.874-2.7262-11.192-6.6002-21.666-8.8959-31.996-1.4347-6.4567-3.5871-8.4654-10.331-8.4654-9.0394 0-7.1741 4.5914-12.052 15.783-1.0044 9.1828-3.874 18.796-5.3088 28.122-0.43052 5.1654-1.5784 8.4654-7.3176 10.044-3.1566 1.0044-5.5958 2.4391-5.5958 4.3045 0 2.8696 4.0175 5.4523 8.035 8.4654l0.71734 0.43054c-1.1479 9.1829-2.4391 14.205-2.4391 20.374 0 3.7305 0.43052 7.748 5.8828 7.748 7.1741 0 6.3132-25.109 8.8959-34.292 6.3132-2.0089 9.0394-5.5958 22.096-6.3132 5.5958 9.7568 10.761 18.366 17.505 25.827 1.7218 2.0086 6.4567 4.8784 9.0394 4.8784 2.7262 0 6.6002-1.7218 6.6002-3.874 0-4.5914-3.1566-7.0306-6.7436-9.1828-5.5966-4.3046-13.058-14.492-15.353-21.092zm-31.996-3.3001 7.4611-32.857c2.0089 4.5914 7.748 25.253 7.748 27.549 0 1.7218-2.8696 2.0086-7.6046 3.0131z" fill="#0085fe"/>
  <path d="m803.1 322.23c7.1741-1.435 16.357-3.7305 21.809-7.748 1.5784-1.1478 3.5871-2.7262 3.5871-4.8784 0-0.4305-0.14461-1.0044-0.28621-1.435-0.71733-1.8652-5.0219-2.0086-7.0306-2.0086-1.8652 0-4.7349 1.1479-7.0306 1.5784-5.1654 1.1479-10.187 2.5828-16.644 3.874-2.7262-11.192-6.6002-21.666-8.8959-31.997-1.4347-6.4567-3.5871-8.4654-10.331-8.4654-9.0394 0-7.1741 4.5914-12.052 15.783-1.0044 9.1828-3.874 18.796-5.3088 28.122-0.43052 5.1653-1.5784 8.4654-7.3176 10.044-3.1566 1.0044-5.5958 2.4391-5.5958 4.3044 0 2.8697 4.0175 5.4523 8.035 8.4654l0.71734 0.43054c-1.1479 9.1828-2.4391 14.205-2.4391 20.374 0 3.7305 0.43052 7.748 5.8828 7.748 7.1741 0 6.3132-25.109 8.8959-34.292 6.3132-2.0089 9.0394-5.5958 22.096-6.3132 5.5958 9.7568 10.761 18.366 17.505 25.827 1.7218 2.0086 6.4567 4.8784 9.0394 4.8784 2.7262 0 6.6002-1.7218 6.6002-3.874 0-4.5914-3.1566-7.0306-6.7436-9.1829-5.5966-4.3046-13.058-14.492-15.353-21.092zm-31.996-3.3001 7.4611-32.857c2.0089 4.5914 7.748 25.253 7.748 27.549 0 1.7218-2.8696 2.0086-7.6046 3.0131z" fill="#0085fe"/>
  <path d="m989.31 418.49c2.5825-6.7437 5.0219-10.044 5.0219-15.783 0-13.344-11.622-20.088-29.701-20.088-12.483 0-35.871 4.3044-35.871 13.057 0 5.3089 5.7393 3.0132 9.0394 5.4524 2.5825 14.348 4.7349 28.553 7.0306 42.758 1.435 8.8959 3.4436 16.644 12.483 21.666 5.1654 2.8696 10.187 5.0218 15.783 5.0218 20.088 0 48.784-17.361 48.784-32.714 0-18.222-20.374-18.653-30.992-18.94h-1.7218zm-41.466-24.105c6.4567-0.14461 12.626-0.86076 18.653-0.86076 11.335 0 17.648 3.1566 17.648 9.9003 0 8.1785-9.6133 14.922-18.509 19.801-3.4436 1.8652-7.748 2.1523-12.626 3.4436zm45.771 35.153c8.6089 0 18.366 1.7218 18.366 7.8915 0 10.618-27.118 23.531-40.175 23.531-6.4567 0-14.348-7.0306-15.783-13.2-0.71735-3.0131-1.2913-6.0262-1.8652-10.905 13.2-3.0132 26.831-7.3176 39.458-7.3176z" fill="#ff9c00"/>
  <path d="m1203.3 664.93c0-2.8058-3.1566-5.6117-5.4364-5.6117-2.8058 0-5.261 2.9811-7.7161 5.0856-7.0146 6.1378-14.205 9.119-21.395 9.119-13.854 0-31.215-13.503-31.215-30.864 0-13.679 6.8393-23.499 19.641-25.954 2.9811-0.52603 7.0146-2.2797 7.0146-5.4363-0.8767-3.332-4.0334-5.6117-7.19-5.6117-11.925 0-25.428 11.574-29.111 22.798-1.5784 4.9102-2.4551 9.6451-2.4551 14.38 0 22.622 18.413 42.789 43.666 42.789 12.977 0 34.196-11.223 34.196-20.693z" fill="#00cb44"/>
  <path d="m803.1 545.42c7.1741-1.435 16.357-3.7305 21.809-7.748 1.5784-1.1479 3.5871-2.7262 3.5871-4.8784 0-0.4305-0.14461-1.0044-0.28621-1.435-0.71733-1.8652-5.0219-2.0086-7.0306-2.0086-1.8652 0-4.7349 1.1479-7.0306 1.5784-5.1654 1.1479-10.187 2.5828-16.644 3.874-2.7262-11.192-6.6002-21.666-8.8959-31.997-1.4347-6.4567-3.5871-8.4654-10.331-8.4654-9.0394 0-7.1741 4.5914-12.052 15.783-1.0044 9.1828-3.874 18.796-5.3088 28.122-0.43052 5.1653-1.5784 8.4654-7.3176 10.044-3.1566 1.0044-5.5958 2.4391-5.5958 4.3044 0 2.8697 4.0175 5.4524 8.035 8.4655l0.71734 0.4305c-1.1479 9.1828-2.4391 14.205-2.4391 20.374 0 3.7305 0.43052 7.748 5.8828 7.748 7.1741 0 6.3132-25.109 8.8959-34.292 6.3132-2.0089 9.0394-5.5958 22.096-6.3132 5.5958 9.7568 10.761 18.366 17.505 25.827 1.7218 2.0086 6.4567 4.8784 9.0394 4.8784 2.7262 0 6.6002-1.7218 6.6002-3.874 0-4.5914-3.1566-7.0307-6.7436-9.1828-5.5966-4.3046-13.058-14.492-15.353-21.092zm-31.996-3.3001 7.4611-32.857c2.0089 4.5914 7.748 25.253 7.748 27.549 0 1.7218-2.8696 2.0086-7.6046 3.0131z" fill="#0085fe"/>
  <path d="m989.31 753.3c2.5825-6.7437 5.0219-10.044 5.0219-15.783 0-13.344-11.622-20.087-29.701-20.087-12.483 0-35.871 4.3044-35.871 13.057 0 5.3089 5.7393 3.0132 9.0394 5.4523 2.5825 14.348 4.7349 28.553 7.0306 42.758 1.435 8.8959 3.4436 16.644 12.483 21.666 5.1654 2.8696 10.187 5.0218 15.783 5.0218 20.088 0 48.784-17.361 48.784-32.714 0-18.222-20.374-18.653-30.992-18.94h-1.7218zm-41.466-24.105c6.4567-0.14461 12.626-0.86076 18.653-0.86076 11.335 0 17.648 3.1566 17.648 9.9002 0 8.1785-9.6133 14.922-18.509 19.801-3.4436 1.8652-7.748 2.1523-12.626 3.4436zm45.771 35.153c8.6089 0 18.366 1.7218 18.366 7.8915 0 10.618-27.118 23.531-40.175 23.531-6.4567 0-14.348-7.0307-15.783-13.2-0.71735-3.0132-1.2913-6.0263-1.8652-10.905 13.2-3.0132 26.831-7.3176 39.458-7.3176z" fill="#ff9c00"/>
  <path d="m324.55 322.23c7.1741-1.435 16.357-3.7305 21.809-7.748 1.5784-1.1478 3.5871-2.7262 3.5871-4.8784 0-0.4305-0.14461-1.0044-0.28601-1.435-0.71736-1.8652-5.0219-2.0086-7.0307-2.0086-1.8652 0-4.7349 1.1479-7.0306 1.5784-5.1654 1.1479-10.187 2.5828-16.644 3.874-2.7262-11.192-6.6002-21.666-8.8959-31.997-1.4347-6.4567-3.587-8.4654-10.331-8.4654-9.0394 0-7.1741 4.5914-12.052 15.783-1.0044 9.1828-3.874 18.796-5.3089 28.122-0.43055 5.1653-1.5784 8.4654-7.3176 10.044-3.1566 1.0044-5.5958 2.4391-5.5958 4.3044 0 2.8697 4.0175 5.4523 8.035 8.4654l0.71735 0.43054c-1.1479 9.1828-2.4391 14.205-2.4391 20.374 0 3.7305 0.4305 7.748 5.8828 7.748 7.1741 0 6.3132-25.109 8.8959-34.292 6.3132-2.0089 9.0394-5.5958 22.096-6.3132 5.5958 9.7568 10.761 18.366 17.505 25.827 1.7218 2.0086 6.4567 4.8784 9.0393 4.8784 2.7262 0 6.6002-1.7218 6.6002-3.874 0-4.5914-3.1566-7.0306-6.7437-9.1829-5.5966-4.3046-13.058-14.492-15.353-21.092zm-31.996-3.3001 7.461-32.857c2.0089 4.5914 7.748 25.253 7.748 27.549 0 1.7218-2.8696 2.0086-7.6045 3.0131z" fill="#0085fe"/>
  <path d="m335.4 418.49c2.5825-6.7437 5.0219-10.044 5.0219-15.783 0-13.344-11.622-20.088-29.701-20.088-12.483 0-35.871 4.3044-35.871 13.057 0 5.3089 5.7393 3.0132 9.0394 5.4524 2.5825 14.348 4.7349 28.553 7.0306 42.758 1.435 8.8959 3.4436 16.644 12.483 21.666 5.1653 2.8696 10.187 5.0218 15.783 5.0218 20.087 0 48.784-17.361 48.784-32.714 0-18.222-20.374-18.653-30.992-18.94h-1.7218zm-41.466-24.105c6.4567-0.14461 12.626-0.86076 18.653-0.86076 11.335 0 17.648 3.1566 17.648 9.9003 0 8.1785-9.6133 14.922-18.509 19.801-3.4436 1.8652-7.748 2.1523-12.626 3.4436zm45.771 35.153c8.6089 0 18.366 1.7218 18.366 7.8915 0 10.618-27.118 23.531-40.175 23.531-6.4567 0-14.348-7.0306-15.783-13.2-0.71732-3.0131-1.2913-6.0262-1.8652-10.905 13.2-3.0132 26.831-7.3176 39.458-7.3176z" fill="#ff9c00"/>
  <path d="m340.52 545.42c7.1741-1.435 16.357-3.7305 21.809-7.748 1.5784-1.1479 3.5871-2.7262 3.5871-4.8784 0-0.4305-0.14462-1.0044-0.28601-1.435-0.71736-1.8652-5.0219-2.0086-7.0307-2.0086-1.8652 0-4.7349 1.1479-7.0306 1.5784-5.1654 1.1479-10.187 2.5828-16.644 3.874-2.7262-11.192-6.6002-21.666-8.8959-31.997-1.4347-6.4567-3.587-8.4654-10.331-8.4654-9.0394 0-7.1741 4.5914-12.052 15.783-1.0044 9.1828-3.874 18.796-5.3089 28.122-0.43055 5.1653-1.5784 8.4654-7.3176 10.044-3.1566 1.0044-5.5958 2.4391-5.5958 4.3044 0 2.8697 4.0175 5.4524 8.035 8.4655l0.71735 0.4305c-1.1479 9.1828-2.4391 14.205-2.4391 20.374 0 3.7305 0.4305 7.748 5.8828 7.748 7.1741 0 6.3132-25.109 8.8959-34.292 6.3132-2.0089 9.0394-5.5958 22.096-6.3132 5.5958 9.7568 10.761 18.366 17.505 25.827 1.7218 2.0086 6.4567 4.8784 9.0393 4.8784 2.7262 0 6.6002-1.7218 6.6002-3.874 0-4.5914-3.1566-7.0307-6.7437-9.1828-5.5966-4.3046-13.058-14.492-15.353-21.092zm-31.996-3.3001 7.461-32.857c2.0089 4.5914 7.748 25.253 7.748 27.549 0 1.7218-2.8696 2.0086-7.6045 3.0131z" fill="#0085fe"/>
  <path d="m358.14 666.93c0-2.8058-3.1566-5.6117-5.4364-5.6117-2.8058 0-5.261 2.9811-7.7161 5.0856-7.0146 6.1378-14.205 9.119-21.395 9.119-13.854 0-31.215-13.503-31.215-30.864 0-13.679 6.8392-23.499 19.641-25.954 2.9811-0.52603 7.0146-2.2797 7.0146-5.4363-0.87671-3.332-4.0334-5.6117-7.19-5.6117-11.925 0-25.428 11.574-29.111 22.798-1.5784 4.9102-2.4551 9.6451-2.4551 14.38 0 22.622 18.413 42.789 43.666 42.789 12.977 0 34.196-11.223 34.196-20.693z" fill="#00cb44"/>
  <path d="m335.43 753.3c2.5825-6.7437 5.0219-10.044 5.0219-15.783 0-13.344-11.622-20.087-29.701-20.087-12.483 0-35.871 4.3044-35.871 13.057 0 5.3089 5.7393 3.0132 9.0394 5.4523 2.5825 14.348 4.7349 28.553 7.0306 42.758 1.435 8.8959 3.4436 16.644 12.483 21.666 5.1653 2.8696 10.187 5.0218 15.783 5.0218 20.087 0 48.784-17.361 48.784-32.714 0-18.222-20.374-18.653-30.992-18.94h-1.7218zm-41.466-24.105c6.4567-0.14461 12.626-0.86076 18.653-0.86076 11.335 0 17.648 3.1566 17.648 9.9002 0 8.1785-9.6133 14.922-18.509 19.801-3.4436 1.8652-7.748 2.1523-12.626 3.4436zm45.771 35.153c8.6089 0 18.366 1.7218 18.366 7.8915 0 10.618-27.118 23.531-40.175 23.531-6.4567 0-14.348-7.0307-15.783-13.2-0.71732-3.0132-1.2913-6.0263-1.8652-10.905 13.2-3.0132 26.831-7.3176 39.458-7.3176z" fill="#ff9c00"/>
  <path d="m340.49 880.23c7.1741-1.435 16.357-3.7305 21.809-7.748 1.5784-1.1479 3.5871-2.7263 3.5871-4.8784 0-0.43054-0.14461-1.0044-0.28601-1.435-0.71736-1.8652-5.0219-2.0086-7.0307-2.0086-1.8652 0-4.7349 1.1478-7.0306 1.5784-5.1654 1.1478-10.187 2.5828-16.644 3.874-2.7262-11.192-6.6002-21.666-8.8959-31.996-1.4347-6.4567-3.5871-8.4654-10.331-8.4654-9.0394 0-7.1741 4.5914-12.052 15.783-1.0044 9.1828-3.874 18.796-5.3089 28.122-0.43054 5.1654-1.5784 8.4654-7.3176 10.044-3.1566 1.0044-5.5958 2.4391-5.5958 4.3045 0 2.8696 4.0175 5.4523 8.035 8.4654l0.71735 0.43054c-1.1478 9.1829-2.4391 14.205-2.4391 20.374 0 3.7305 0.4305 7.748 5.8828 7.748 7.1741 0 6.3132-25.109 8.8959-34.292 6.3132-2.0089 9.0394-5.5958 22.096-6.3132 5.5958 9.7568 10.761 18.366 17.505 25.827 1.7218 2.0086 6.4567 4.8784 9.0393 4.8784 2.7263 0 6.6002-1.7218 6.6002-3.874 0-4.5914-3.1566-7.0306-6.7436-9.1828-5.5966-4.3046-13.058-14.492-15.353-21.092zm-31.996-3.3001 7.461-32.857c2.0089 4.5914 7.748 25.253 7.748 27.549 0 1.7218-2.8696 2.0086-7.6045 3.0131z" fill="#0085fe"/>
  <g fill="#808080">
   <path d="m-19.55 310.14c0.78906 10.33 1.6501 20.733 2.7263 31.135 0.5022 4.6631 2.9413 7.3174 7.3892 7.3174 1.4347-0.35872 2.6542-3.874 2.6542-5.3087 0-1.8652-0.57395-3.8022-0.78906-5.5957-1.0762-9.8283-2.6542-19.728-2.6542-29.557 0-7.4609 3.3-6.6718 15.783-9.5414 2.8697-0.64563 5.5239-1.6501 5.5239-4.6631 0-4.0891-2.8696-4.95-5.5957-4.95-1.0044 0-2.224 0-3.3 0.2139-12.411 3.4435-25.037 6.7435-37.448 10.187-2.3674 0.64563-4.4479 2.0803-4.4479 4.4478 0 3.587 2.5108 4.8783 4.5913 4.8783 3.9457 0 9.6848-2.1523 15.352-3.587z"/>
   <path d="m21.05 296.04c1.5064 0.2139 2.8697 0.43052 3.9457 0.43052 3.3 0 4.5196-1.1479 4.5196-3.8022 0-3.5152-3.9457-6.9587-8.2501-6.9587-3.587 0-6.0978 2.2957-6.0978 5.8826 0 3.7304 2.2957 4.4478 5.4522 4.4478zm11.694 55.813c3.587 0 4.5913-2.9414 4.5913-4.5196 0-1.6501-0.50224-3.3718-0.93274-5.0936-0.57395-7.3174-1.2196-14.635-1.8652-21.952 0-2.6542-0.21411-7.3891-3.6587-7.3891-2.4391 0-4.0174 2.5108-5.7392 4.3761-0.93274 0.93275-0.93274 6.8152-0.93274 8.9674 0 7.6761 2.0086 25.611 8.537 25.611z"/>
   <path d="m104.49 312.72c1.2913 5.8826 1.4347 23.387 9.1109 23.387 2.9414 0 6.0979-2.6542 6.0979-5.4522 0-0.93246-0.35872-1.8652-1.0762-2.8697-3.5152-3.8022-3.0131-8.6087-3.9457-13.057-1.7218-8.2501-1.9369-21.163-14.635-21.163-9.9001 0-15.568 10.904-20.159 17.863-4.4478-6.4566-7.8196-13.774-13.631-13.774-4.663 0-8.3218 5.3805-11.765 10.976-2.2957-6.8153-3.2283-14.42-8.537-14.42-3.0848 0-4.8783 2.224-4.8783 6.3131 0 4.4479 3.2283 9.9718 4.2327 14.922 1.4347 7.3174 2.5108 14.778 3.6587 22.096 0.50224 3.0848 1.0044 6.4566 5.1653 6.4566 6.887 0 5.8826-11.909 7.4609-18.939 1.0762-4.8065 1.1479-10.115 5.5239-15.998l5.3087 17.504c1.5064 4.95 2.224 11.837 7.4609 11.837 1.8652 0 3.7305-1.1478 4.8783-3.4435 0.93275-1.8652 0.71731-4.3761 1.2913-6.3848 1.6501-5.6674 3.2283-11.622 5.6674-17.146 1.4347-3.3718 3.8022-6.6718 9.9-7.6761 0.93275 2.4391 2.2957 6.3131 2.8696 8.9674z"/>
   <path d="m136.05 308.96c0-1.7935 1.363-2.7979 3.4435-3.5152l1.0044-0.28621c6.4565-2.0803 12.985-4.1609 19.513-5.8109 2.6545-0.64563 5.3087-1.4347 5.3087-4.0174 0-2.7979-3.874-6.0979-6.887-6.0979-1.4347 0-3.1565 0.35884-4.4479 0.78904-8.3218 2.6542-16.644 5.6674-24.894 8.537-3.4435 1.2196-5.0935 3.7304-5.0935 6.9587 0 3.3718 2.7262 8.1066 3.2283 12.77 0.86076 7.6044 1.2913 15.281 2.1523 22.957 0.50224 4.8783 2.7262 7.1022 6.2413 7.1022 0.57395 0 1.2196-0.0723 1.7935-0.2141 7.8196-1.2913 15.711-2.4391 23.531-3.874 4.663-0.78902 8.8957-1.8652 8.8957-6.2413 0-1.4347-3.3-4.3044-5.524-4.3044-0.78906 0-2.0086 0.43054-3.0848 0.57395-7.3175 0.86072-14.635 1.6501-22.526 2.5108l-1.5784-14.276c6.5283-2.5108 14.276-4.0892 21.522-5.5957l2.224-0.5022c3.0131-0.64566 5.237-1.363 5.237-4.8783 0-3.4435-2.8697-4.6631-5.7392-4.6631-6.6718 0-15.137 3.2283-23.172 5.524-0.71735-1.363-1.1478-2.5108-1.1478-3.4435z"/>
  </g>
  <path d="m845.29 358.04c0.51006 4.4002 2.9974 10.395 7.7163 10.395 1.4666 0 2.6783-0.82911 2.6783-2.1044 0-0.70137-0.25609-1.5305-0.6378-1.7856-3.5712-2.4234-4.0813-6.122-4.4002-9.8845-0.76524-8.4177-1.4666-16.899-1.977-25.381-0.12654-1.7218 0.25608-3.7625-2.1683-3.7625-2.5509 0-2.9335 2.6783-2.9335 6.3771 0 8.2264 0.57393 16.325 1.7218 26.146z" fill="#0085fe"/>
  <path d="m1035.9 468.14c0.51 4.4002 2.9974 10.395 7.7162 10.395 1.4666 0 2.6783-0.82911 2.6783-2.1044 0-0.70137-0.2559-1.5305-0.6378-1.7857-3.5712-2.4231-4.0814-6.122-4.4002-9.8845-0.7653-8.4177-1.4666-16.899-1.977-25.381-0.1266-1.7218 0.2559-3.7625-2.1683-3.7625-2.5509 0-2.9335 2.6783-2.9335 6.3771 0 8.2264 0.5739 16.325 1.7218 26.146z" fill="#ff9c00"/>
  <path d="m1217.6 680.98c0.5101 4.4002 2.9974 10.395 7.7163 10.395 1.4666 0 2.6783-0.8291 2.6783-2.1044 0-0.70137-0.2559-1.5305-0.6378-1.7856-3.5712-2.4234-4.0813-6.122-4.4002-9.8845-0.7653-8.4177-1.4666-16.899-1.977-25.381-0.1266-1.7218 0.2563-3.7625-2.1682-3.7625-2.5509 0-2.9335 2.6783-2.9335 6.3771 0 8.2264 0.5739 16.325 1.7218 26.146z" fill="#00cb44"/>
  <path d="m857.7 556.96c0-5.3567-0.76524-8.6091-5.0379-8.6091-5.5481 0-12.627 8.2264-12.627 13.392 0 1.5305 0.57393 3.061 2.7422 3.061 1.3392 0 2.2957-1.6579 2.2957-2.9335 0.82911-3.4436 5.1654-7.9713 7.0785-7.9713 0.57393 0 0.70137 0.44649 0.70137 1.084 0 4.9741-1.1479 9.9482-2.7422 15.305-1.4666 5.0379-4.464 11.415-4.464 16.006 0 3.5074 2.2318 5.1017 8.0989 5.1017 4.0813 0 8.2264-0.31895 12.308-0.63781 2.0405-0.12654 3.3798-1.9131 3.3798-3.4436 0-1.5944-2.4232-1.7218-3.9538-1.7218h-0.76524c-4.464 0-8.4815 0.1896-13.583 0.38242 2.3596-10.012 6.5684-18.557 6.5684-29.016z" fill="#0085fe"/>
  <path d="m1049.2 775.75c0-5.3567-0.7652-8.609-5.0379-8.609-5.5481 0-12.627 8.2264-12.627 13.392 0 1.5305 0.5739 3.061 2.7422 3.061 1.3392 0 2.2957-1.6582 2.2957-2.9335 0.8291-3.4436 5.1654-7.9713 7.0786-7.9713 0.574 0 0.7014 0.44649 0.7014 1.084 0 4.9741-1.1479 9.9482-2.7422 15.305-1.4666 5.0379-4.464 11.415-4.464 16.006 0 3.5074 2.2318 5.1017 8.0989 5.1017 4.0814 0 8.2264-0.31895 12.308-0.63778 2.0406-0.12654 3.3799-1.9131 3.3799-3.4436 0-1.5944-2.4234-1.7218-3.9538-1.7218h-0.7653c-4.464 0-8.4815 0.18961-13.583 0.38242 2.3596-10.012 6.5684-18.557 6.5684-29.016z" fill="#ff9c00"/>
  <path d="m864.6 895.33c0-4.8466-5.5481-6.8873-11.224-6.8873-4.4002 0-14.604 2.487-14.604 5.9307 0 1.4666 1.2117 2.6783 2.8696 2.6783 0.70137 0 1.403-0.19001 1.977-0.70137 2.6145-2.4232 5.6118-2.9974 8.7366-2.9974 2.9974 0 6.6959 0.57394 6.6959 2.3596 0 3.3161-9.8845 6.3133-15.05 9.8207-1.084 0.76524-2.2318 1.6579-2.2318 2.8697 0 2.2318 1.6579 2.6783 2.9974 2.6783 2.0405 0 4.2089-0.51008 6.3133-0.51008 6.1858 0 17.92 0.89269 17.92 5.6119 0 6.122-12.882 11.16-20.726 11.16-2.1683 0-2.6148-0.76524-4.0813-3.89-0.38262-0.63782-1.2117-1.4666-1.8492-1.4666-1.7856 0-2.6783 2.487-2.6783 3.89 0 4.2726 5.5481 6.0582 9.3743 6.0582 9.8207 0 24.934-6.3133 24.934-16.07 0-7.8438-11.543-9.3743-20.407-10.586 5.6756-2.6148 11.032-3.4436 11.032-9.9482z" fill="#0085fe"/>
  <path d="m72.41 429.85v444.23" fill="#55988a" stroke="#808080" stroke-width="10"/>
  <g fill="none" stroke="#808080" stroke-width="10">
   <path d="m495.67 571.29h133.95"/>
   <path d="m495.67 621.95h133.95"/>
   <path d="m576.17 516.89 79.813 79.813-79.813 79.796"/>
   <path d="m112.74 816.42-39.813 63.813-41.796-63.813"/>
  </g>
  <path d="m361.29 358.04c0.51006 4.4002 2.9974 10.395 7.7163 10.395 1.4666 0 2.6783-0.82911 2.6783-2.1044 0-0.70137-0.25609-1.5305-0.6378-1.7856-3.5712-2.4234-4.0813-6.122-4.4002-9.8845-0.76524-8.4177-1.4666-16.899-1.977-25.381-0.12654-1.7218 0.25608-3.7625-2.1683-3.7625-2.5509 0-2.9335 2.6783-2.9335 6.3771 0 8.2264 0.57393 16.325 1.7218 26.146z" fill="#0085fe"/>
  <path d="m381.91 468.14c0.51003 4.4002 2.9974 10.395 7.7162 10.395 1.4666 0 2.6783-0.82911 2.6783-2.1044 0-0.70137-0.25589-1.5305-0.63782-1.7857-3.5712-2.4231-4.0814-6.122-4.4002-9.8845-0.76524-8.4177-1.4666-16.899-1.977-25.381-0.12654-1.7218 0.25588-3.7625-2.1683-3.7625-2.5509 0-2.9335 2.6783-2.9335 6.3771 0 8.2264 0.57395 16.325 1.7218 26.146z" fill="#ff9c00"/>
  <path d="m391.7 556.96c0-5.3567-0.76524-8.6091-5.0379-8.6091-5.5481 0-12.627 8.2264-12.627 13.392 0 1.5305 0.57393 3.061 2.7422 3.061 1.3392 0 2.2957-1.6579 2.2957-2.9335 0.82911-3.4436 5.1654-7.9713 7.0785-7.9713 0.57393 0 0.70137 0.44649 0.70137 1.084 0 4.9741-1.1479 9.9482-2.7422 15.305-1.4666 5.0379-4.464 11.415-4.464 16.006 0 3.5074 2.2318 5.1017 8.0989 5.1017 4.0813 0 8.2264-0.31895 12.308-0.63781 2.0405-0.12654 3.3798-1.9131 3.3798-3.4436 0-1.5944-2.4232-1.7218-3.9538-1.7218h-0.76524c-4.464 0-8.4815 0.1896-13.583 0.38242 2.3596-10.012 6.5684-18.557 6.5684-29.016z" fill="#0085fe"/>
  <path d="m375.56 682.98c0.5101 4.4002 2.9974 10.395 7.7163 10.395 1.4666 0 2.6783-0.8291 2.6783-2.1044 0-0.70137-0.2559-1.5305-0.6378-1.7856-3.5712-2.4234-4.0813-6.122-4.4002-9.8845-0.7653-8.4177-1.4666-16.899-1.977-25.381-0.1266-1.7218 0.2563-3.7625-2.1682-3.7625-2.5509 0-2.9335 2.6783-2.9335 6.3771 0 8.2264 0.5739 16.325 1.7218 26.146z" fill="#00cb44"/>
  <path d="m393.25 775.75c0-5.3567-0.76523-8.609-5.0379-8.609-5.5481 0-12.627 8.2264-12.627 13.392 0 1.5305 0.57395 3.061 2.7422 3.061 1.3392 0 2.2957-1.6582 2.2957-2.9335 0.82911-3.4436 5.1654-7.9713 7.0786-7.9713 0.57395 0 0.70137 0.44649 0.70137 1.084 0 4.9741-1.1479 9.9482-2.7422 15.305-1.4666 5.0379-4.464 11.415-4.464 16.006 0 3.5074 2.2318 5.1017 8.0989 5.1017 4.0814 0 8.2264-0.31895 12.308-0.63778 2.0406-0.12654 3.3799-1.9131 3.3799-3.4436 0-1.5944-2.4234-1.7218-3.9538-1.7218h-0.76524c-4.464 0-8.4815 0.18961-13.583 0.38242 2.3596-10.012 6.5684-18.557 6.5684-29.016z" fill="#ff9c00"/>
  <path d="m398.6 895.33c0-4.8466-5.5481-6.8873-11.224-6.8873-4.4002 0-14.604 2.487-14.604 5.9307 0 1.4666 1.2117 2.6783 2.8696 2.6783 0.70137 0 1.403-0.19001 1.977-0.70137 2.6145-2.4232 5.6118-2.9974 8.7366-2.9974 2.9974 0 6.6959 0.57394 6.6959 2.3596 0 3.3161-9.8845 6.3133-15.05 9.8207-1.084 0.76524-2.2318 1.6579-2.2318 2.8697 0 2.2318 1.6579 2.6783 2.9974 2.6783 2.0405 0 4.2089-0.51008 6.3133-0.51008 6.1858 0 17.92 0.89269 17.92 5.6119 0 6.122-12.882 11.16-20.726 11.16-2.1683 0-2.6148-0.76524-4.0813-3.89-0.38262-0.63782-1.2117-1.4666-1.8492-1.4666-1.7856 0-2.6783 2.487-2.6783 3.89 0 4.2726 5.5481 6.0582 9.3743 6.0582 9.8207 0 24.934-6.3133 24.934-16.07 0-7.8438-11.543-9.3743-20.407-10.586 5.6756-2.6148 11.032-3.4436 11.032-9.9482z" fill="#0085fe"/>
 </g>
</svg>
